<svg width="361" height="133" viewBox="0 0 361 133" fill="none" xmlns="http://www.w3.org/2000/svg">
<path d="M40.464 123C31.4187 123 24.208 121.123 18.832 117.368C13.456 113.528 10.512 108.237 10 101.496H24.72C25.1467 104.824 26.7253 107.341 29.456 109.048C32.1867 110.755 35.856 111.608 40.464 111.608C44.6453 111.608 47.76 110.968 49.808 109.688C51.9413 108.323 53.008 106.403 53.008 103.928C53.008 102.136 52.4107 100.685 51.216 99.576C50.0213 98.3813 47.76 97.4 44.432 96.632L33.936 94.2C26.768 92.664 21.4347 90.2747 17.936 87.032C14.5227 83.704 12.816 79.5653 12.816 74.616C12.816 68.5573 15.12 63.8213 19.728 60.408C24.4213 56.9093 30.864 55.16 39.056 55.16C47.1627 55.16 53.648 56.9093 58.512 60.408C63.4613 63.8213 66.192 68.5573 66.704 74.616H51.984C51.5573 71.9707 50.192 69.9653 47.888 68.6C45.6693 67.2347 42.5973 66.552 38.672 66.552C35.0027 66.552 32.2293 67.1493 30.352 68.344C28.4747 69.4533 27.536 71.1173 27.536 73.336C27.536 75.0427 28.2613 76.4933 29.712 77.688C31.1627 78.7973 33.5947 79.7787 37.008 80.632L48.272 83.192C54.672 84.6427 59.4933 87.16 62.736 90.744C66.064 94.328 67.728 98.552 67.728 103.416C67.728 109.645 65.3387 114.467 60.56 117.88C55.7813 121.293 49.0827 123 40.464 123Z" fill="#0066FF"/>
<path d="M115.463 121.72C115.036 120.013 114.695 118.136 114.439 116.088C114.268 114.04 114.183 111.565 114.183 108.664H113.671V77.688C113.671 74.2747 112.69 71.7147 110.727 70.008C108.85 68.216 105.948 67.32 102.023 67.32C98.183 67.32 95.111 68.0453 92.807 69.496C90.5883 70.8613 89.223 72.8667 88.711 75.512H73.223C73.9057 69.4533 76.807 64.5467 81.927 60.792C87.047 57.0373 93.9163 55.16 102.535 55.16C111.495 55.16 118.279 57.208 122.887 61.304C127.495 65.3147 129.799 71.2453 129.799 79.096V108.664C129.799 110.712 129.927 112.803 130.183 114.936C130.524 117.069 130.994 119.331 131.591 121.72H115.463ZM92.807 123C86.2363 123 80.9883 121.379 77.063 118.136C73.223 114.808 71.303 110.371 71.303 104.824C71.303 98.8507 73.479 94.1147 77.831 90.616C82.183 87.1173 88.327 84.7707 96.263 83.576L116.615 80.504V90.744L98.951 93.432C95.111 94.0293 92.2097 95.096 90.247 96.632C88.3697 98.168 87.431 100.301 87.431 103.032C87.431 105.507 88.327 107.427 90.119 108.792C91.911 110.072 94.3857 110.712 97.543 110.712C102.151 110.712 105.991 109.56 109.063 107.256C112.135 104.952 113.671 102.136 113.671 98.808L115.463 108.664C113.756 113.357 110.94 116.941 107.015 119.416C103.175 121.805 98.439 123 92.807 123Z" fill="#0066FF"/>
<path d="M155.44 121.72L129.328 56.44H146.736L167.6 116.472H159.024L179.888 56.44H196.784L170.544 121.72H155.44Z" fill="#0066FF"/>
<path d="M199.769 121.72V56.44H215.897V121.72H199.769Z" fill="#0066FF"/>
<path d="M227.899 121.72V56.44H243.643V72.184H244.027V121.72H227.899ZM244.027 87.672L242.363 72.184C243.899 66.6373 246.502 62.4133 250.171 59.512C253.84 56.6107 258.235 55.16 263.355 55.16C265.147 55.16 266.427 55.3307 267.195 55.672V70.904C266.768 70.7333 266.171 70.648 265.403 70.648C264.635 70.5627 263.696 70.52 262.587 70.52C256.358 70.52 251.707 71.8853 248.635 74.616C245.563 77.3467 244.027 81.6987 244.027 87.672Z" fill="#0066FF"/>
<path d="M311.108 121.72C310.681 120.013 310.34 118.136 310.084 116.088C309.913 114.04 309.828 111.565 309.828 108.664H309.316V77.688C309.316 74.2747 308.335 71.7147 306.372 70.008C304.495 68.216 301.593 67.32 297.668 67.32C293.828 67.32 290.756 68.0453 288.452 69.496C286.233 70.8613 284.868 72.8667 284.356 75.512H268.868C269.551 69.4533 272.452 64.5467 277.572 60.792C282.692 57.0373 289.561 55.16 298.18 55.16C307.14 55.16 313.924 57.208 318.532 61.304C323.14 65.3147 325.444 71.2453 325.444 79.096V108.664C325.444 110.712 325.572 112.803 325.828 114.936C326.169 117.069 326.639 119.331 327.236 121.72H311.108ZM288.452 123C281.881 123 276.633 121.379 272.708 118.136C268.868 114.808 266.948 110.371 266.948 104.824C266.948 98.8507 269.124 94.1147 273.476 90.616C277.828 87.1173 283.972 84.7707 291.908 83.576L312.26 80.504V90.744L294.596 93.432C290.756 94.0293 287.855 95.096 285.892 96.632C284.015 98.168 283.076 100.301 283.076 103.032C283.076 105.507 283.972 107.427 285.764 108.792C287.556 110.072 290.031 110.712 293.188 110.712C297.796 110.712 301.636 109.56 304.708 107.256C307.78 104.952 309.316 102.136 309.316 98.808L311.108 108.664C309.401 113.357 306.585 116.941 302.66 119.416C298.82 121.805 294.084 123 288.452 123Z" fill="#0066FF"/>
<path d="M331.653 121.72V103.288H350.213V121.72H331.653Z" fill="#0066FF"/>
<path d="M200.536 51.344L203.736 37.008L192.472 46.992L185.432 35.088L200.024 30.608L185.432 26.256L192.472 14.352L203.736 24.336L200.536 10H214.488L211.16 24.336L222.552 14.352L229.464 26.256L215 30.608L229.464 35.088L222.552 46.992L211.16 37.008L214.488 51.344H200.536Z" fill="#0066FF"/>
</svg>
